# xmcd
#
# Track frame offsets:
#  150
#  21003
#  39369
#  59938
#  76577
#  92891
#  111050
#  128891
#  146820
#  163077
#  179569
#  199854
#
# Disc length: 2863 seconds
#
# Revision: 0
# Processed by: cddbd v1.5.1PL0 Copyright (c) Steve Scherf et al.
# Submitted via: Collectorz.com_Music_Collector 6.9
#
DISCID=a80b2d0c
DTITLE=Gus McKay - Grinn
DYEAR=2004
DGENRE=Blues -  Blues Folk
TTITLE0=In The Afternoon
TTITLE1=Grinn
TTITLE2=Truck
TTITLE3=Dirt Is Good
TTITLE4=Ethylene
TTITLE5=Pioneer
TTITLE6=Big Boss Town
TTITLE7=Stereotype
TTITLE8=Country Girl
TTITLE9=Deep River
TTITLE10=S.I.Y.B.
TTITLE11=Walk For Miles (in the rain)
EXTD=
EXTT0=
EXTT1=
EXTT2=
EXTT3=
EXTT4=
EXTT5=
EXTT6=
EXTT7=
EXTT8=
EXTT9=
EXTT10=
EXTT11=
PLAYORDER=
